<?xml version="1.0" standalone="no"?>
<!DOCTYPE svg PUBLIC "-//W3C//DTD SVG 20010904//EN"
 "http://www.w3.org/TR/2001/REC-SVG-20010904/DTD/svg10.dtd">
<svg version="1.0" xmlns="http://www.w3.org/2000/svg"
 width="512.000000pt" height="512.000000pt" viewBox="0 0 512.000000 512.000000"
 preserveAspectRatio="xMidYMid meet">
<metadata>
Created by potrace 1.14, written by Peter Selinger 2001-2017
</metadata>
<g transform="translate(0.000000,512.000000) scale(0.100000,-0.100000)"
fill="#000000" stroke="none">
<path d="M3828 3935 c-2 -1 -51 -6 -110 -9 -59 -4 -116 -9 -127 -11 -18 -3
-64 -11 -131 -21 -370 -58 -783 -231 -1120 -469 -583 -413 -1000 -1074 -1113
-1765 -28 -167 -33 -217 -41 -379 -5 -105 -29 -96 252 -96 l246 0 2 50 c3 92
15 248 19 254 2 4 6 27 10 51 16 122 57 284 99 395 15 39 28 75 30 80 23 77
131 283 214 410 143 216 379 462 562 585 12 8 39 27 59 41 104 74 288 170 441
231 219 87 494 144 733 151 42 1 78 4 78 7 4 16 3 490 -1 491 -18 3 -100 6
-102 4z"/>
<path d="M1472 3904 c-69 -18 -97 -33 -155 -85 -82 -71 -125 -159 -131 -264
-13 -221 165 -408 385 -406 330 3 505 388 288 635 -99 112 -244 157 -387 120z"/>
<path d="M3868 2935 c-2 -1 -43 -5 -91 -9 -265 -19 -579 -128 -807 -281 -416
-280 -670 -674 -764 -1190 -6 -28 -12 -91 -20 -206 -2 -26 -1 -51 3 -56 5 -7
431 -11 487 -4 7 0 12 22 13 55 3 276 134 581 346 804 219 232 520 367 855
386 l45 2 1 235 c0 128 -2 241 -5 249 -5 12 -53 24 -63 15z"/>
</g>
</svg>
